<?xml version="1.0" encoding="UTF-8" standalone="no"?>
<!DOCTYPE svg PUBLIC "-//W3C//DTD SVG 1.1//EN" "http://www.w3.org/Graphics/SVG/1.1/DTD/svg11.dtd">
<svg width="100%" height="100%" viewBox="0 0 945 524" version="1.1" xmlns="http://www.w3.org/2000/svg" xmlns:xlink="http://www.w3.org/1999/xlink" xml:space="preserve" xmlns:serif="http://www.serif.com/" style="fill-rule:evenodd;clip-rule:evenodd;stroke-linejoin:round;stroke-miterlimit:2;"><g id="Artboard1" transform="matrix(1,0,0,1,-27.0634,-238.634)"><rect x="27.063" y="238.634" width="944.937" height="523.551" style="fill:none;"/><clipPath id="_clip1"><rect x="27.063" y="238.634" width="944.937" height="523.551"/></clipPath><g clip-path="url(#_clip1)"><g transform="matrix(1,0,0,1,0.0634,0.6344)"><path d="M757.567,517.675L757.567,762.186L542.08,762.186L542.08,598.74L456.985,583.094L456.985,762.186L241.496,762.186L241.496,613.197L27.114,504.137L27.063,504.111L422.721,576.799L391.721,510.799L710.108,569.293L679.082,503.268L757.567,517.675ZM971.948,496.735L757.566,387.674L757.566,238.634L542.105,238.634L542.079,417.777L456.985,402.135L456.985,238.634L241.496,238.634L241.496,483.198L319.981,497.604L288.957,431.578L607.342,490.072L576.344,424.072L972,496.763L971.948,496.735Z" style="fill:rgb(255,154,0);fill-rule:nonzero;"/></g></g></g></svg>
