<?xml version="1.0" encoding="UTF-8" standalone="no"?>
<!DOCTYPE svg PUBLIC "-//W3C//DTD SVG 1.1//EN" "http://www.w3.org/Graphics/SVG/1.1/DTD/svg11.dtd">
<svg width="100%" height="100%" viewBox="0 0 611 225" version="1.1" xmlns="http://www.w3.org/2000/svg" xmlns:xlink="http://www.w3.org/1999/xlink" xml:space="preserve" xmlns:serif="http://www.serif.com/" style="fill-rule:evenodd;clip-rule:evenodd;stroke-linejoin:round;stroke-miterlimit:2;">
    <g transform="matrix(1,0,0,1,-1189,-487)">
        <g id="Artboard2" transform="matrix(1,0,0,1,-1,-0.778814)">
            <rect x="1190" y="487.779" width="610.342" height="224.442" style="fill:none;"/>
            <clipPath id="_clip1">
                <rect x="1190" y="487.779" width="610.342" height="224.442"/>
            </clipPath>
            <g clip-path="url(#_clip1)">
                <g transform="matrix(1,0,0,1,988.793,34.7502)">
                    <path d="M706.776,648.137L706.776,648.106L202.207,648.106L202.207,678.25L812.549,678.25L812.549,457.158L779.085,457.158L779.085,537.57C779.085,571.075 767.018,584.477 737.518,584.477C708.019,584.477 695.951,571.075 695.951,537.57L695.951,457.158L662.488,457.158L662.488,537.57C662.488,580.122 681.562,614.59 732.49,614.59C752.603,614.59 769.029,605.556 779.085,594.515L779.085,648.137L706.776,648.137ZM244.372,487.271L244.372,593.268L202.207,593.268L202.207,626.732L320,626.732L320,593.268L277.835,593.268L277.835,487.271L320,487.271L320,453.807L202.207,453.807L202.207,487.271L244.372,487.271ZM340,626.732L340,453.807L477.793,453.807L477.793,506.79L444.33,506.79L444.33,487.271L373.463,487.271L373.463,593.268L444.33,593.268L444.33,577.58L477.793,577.58L477.793,626.732L340,626.732ZM642.463,626.732L497.815,626.732L497.815,540.9C497.815,488.28 518.562,453.807 570.165,453.807C621.768,453.807 642.515,484.926 642.515,537.554L642.515,555.956L531.278,555.956L531.278,593.268L609,593.268L609,577.58L642.463,577.58L642.463,626.732ZM570.165,483.92C597.319,483.92 608.381,496.665 609.052,525.843L531.278,525.843C532.954,498.677 544.352,483.92 570.165,483.92Z" style="fill:rgb(227,238,248);"/>
                </g>
            </g>
        </g>
    </g>
</svg>
