<?xml version="1.0" encoding="UTF-8" standalone="no"?>
<!DOCTYPE svg PUBLIC "-//W3C//DTD SVG 1.1//EN" "http://www.w3.org/Graphics/SVG/1.1/DTD/svg11.dtd">
<svg width="100%" height="100%" viewBox="0 0 240 62" version="1.1" xmlns="http://www.w3.org/2000/svg" xmlns:xlink="http://www.w3.org/1999/xlink" xml:space="preserve" xmlns:serif="http://www.serif.com/" style="fill-rule:evenodd;clip-rule:evenodd;stroke-linejoin:round;stroke-miterlimit:2;">
    <g transform="matrix(1,0,0,1,0,-921)">
        <g id="Artboard1" transform="matrix(1,0,0,1,300,-0.0644329)">
            <rect x="-300" y="921.064" width="240" height="61.437" style="fill:none;"/>
            <clipPath id="_clip1">
                <rect x="-300" y="921.064" width="240" height="61.437"/>
            </clipPath>
            <g clip-path="url(#_clip1)">
                <g transform="matrix(0.258114,0,0,0.245131,-835.102,-1311.63)">
                    <g transform="matrix(1,0,0,1,0,0.0820162)">
                        <g transform="matrix(0.964403,0,0,1,1600.64,220.911)">
                            <rect x="493.94" y="8887.42" width="224.893" height="61.258" style="fill:rgb(135,6,246);"/>
                        </g>
                        <g transform="matrix(1,0,0,1,1515.6,220.568)">
                            <path d="M884.821,9054.89C884.536,9054.65 884.259,9054.39 883.993,9054.12C879.399,9049.53 874.117,9044.25 870.619,9040.75C868.133,9038.26 866.736,9034.89 866.736,9031.38C866.736,9025.19 866.736,9015.18 866.736,9008.99C866.736,9005.48 868.133,9002.1 870.619,8999.62C885.593,8984.64 939.838,8930.4 961.847,8908.39C964.333,8905.9 967.706,8904.51 971.222,8904.51C974.738,8904.51 978.11,8905.9 980.597,8908.39C988.244,8916.04 998.661,8926.45 1004.23,8932.02C1006.71,8934.51 1008.11,8937.88 1008.11,8941.39C1008.11,8942.01 1008.11,8942.65 1008.11,8943.27C1008.11,8946.78 1006.71,8950.16 1004.23,8952.64L936.448,9020.42L1029.33,9115.89C1033.05,9119.71 1034.11,9125.38 1032.04,9130.29C1029.97,9135.2 1025.15,9138.39 1019.83,9138.39L973.787,9138.39C970.271,9138.39 966.9,9137 964.413,9134.51C950.858,9120.96 905.391,9075.51 885.563,9055.69C885.303,9055.43 885.056,9055.16 884.821,9054.89Z" style="fill:rgb(135,6,246);"/>
                        </g>
                        <g transform="matrix(1,0,0,1,1515.6,220.568)">
                            <path d="M1263.61,9028.34L1202.31,8958.76C1200.18,8956.34 1199,8953.22 1199,8949.99C1199,8943.09 1199,8931.5 1199,8931.5C1199,8931.5 1208.6,8922.27 1216.27,8914.88C1221.47,8909.87 1229.73,8909.95 1234.84,8915.06C1253.3,8933.52 1294.71,8974.94 1313.33,8993.55C1313.66,8993.88 1313.97,8994.22 1314.26,8994.58C1314.59,8994.86 1314.92,8995.15 1315.23,8995.47C1322.5,9002.74 1332.53,9012.76 1339.8,9020.03C1342.29,9022.52 1343.68,9025.89 1343.68,9029.41C1343.68,9032.92 1342.29,9036.3 1339.8,9038.78C1317.03,9061.55 1259.54,9119.04 1244.07,9134.51C1241.59,9137 1238.21,9138.39 1234.7,9138.39C1224.92,9138.39 1203.8,9138.39 1185.56,9138.39C1180.2,9138.39 1175.37,9135.16 1173.32,9130.21C1171.26,9125.26 1172.4,9119.55 1176.19,9115.76L1263.61,9028.34Z" style="fill:rgb(52,242,123);"/>
                        </g>
                        <g transform="matrix(-0.731396,0,0,1,3062.4,308.648)">
                            <rect x="493.94" y="8887.42" width="224.893" height="61.258" style="fill:rgb(135,6,246);"/>
                        </g>
                        <g transform="matrix(-0.327805,0,0,1,3096.95,309.199)">
                            <path d="M734.764,8887.42L493.94,8887.42L493.94,8948.68L627.962,8948.68L734.764,8913.68L734.764,8887.42Z" style="fill:rgb(52,242,123);"/>
                        </g>
                        <g transform="matrix(-0.731396,0,0,1,3062.58,221.068)">
                            <rect x="493.94" y="8887.42" width="224.893" height="61.258" style="fill:rgb(135,6,246);"/>
                        </g>
                        <g transform="matrix(-0.672206,0,0,1,3197.81,221.068)">
                            <rect x="493.94" y="8887.42" width="224.893" height="61.258" style="fill:rgb(52,242,123);"/>
                        </g>
                        <g transform="matrix(-6.83114e-17,-1.11561,-1,6.12323e-17,11894.2,9910.01)">
                            <rect x="493.94" y="8887.42" width="224.893" height="61.258" style="fill:rgb(52,242,123);"/>
                        </g>
                        <g transform="matrix(-2.96741e-17,-0.484615,-1,6.12323e-17,11752.2,9598.33)">
                            <path d="M552.53,8948.91L679.485,8887.65L493.94,8887.42L493.94,8948.68L552.53,8948.91Z" style="fill:rgb(52,242,123);"/>
                        </g>
                        <g transform="matrix(-0.731396,0,0,1,3062.4,410.284)">
                            <path d="M718.834,8887.42L493.94,8887.42L495.35,8898.93L564.396,8949.28L650.533,8949.28L719.785,8898.28L718.834,8887.42Z" style="fill:rgb(135,6,246);"/>
                        </g>
                        <g transform="matrix(1,0,0,1,1559.82,221.068)">
                            <path d="M755.763,8887.42L747,8887.42L747,9137.89L808.258,9137.89L808.258,8948.26L963.888,8948.26L963.888,8887L755.763,8887L755.763,8887.42Z" style="fill:rgb(135,6,246);"/>
                        </g>
                        <g transform="matrix(0.964403,0,0,1,1600.64,220.911)">
                            <path d="M493.94,8975L493.94,9137.89L555.199,9137.89L555.199,9036.26L718.834,9036.26L718.834,8975L493.94,8975Z" style="fill:rgb(135,6,246);"/>
                        </g>
                    </g>
                    <g transform="matrix(6.12323e-17,1,-1,6.12323e-17,12109,6394.58)">
                        <path d="M2855.5,9244.22L2871.5,9260.25L2841,9259L2855.5,9244.22Z" style="fill:rgb(52,242,123);"/>
                    </g>
                    <g transform="matrix(-6.12323e-17,1,1,6.12323e-17,-6560.22,6489.08)">
                        <path d="M2869.96,9228.22L2870,9260.22L2840.62,9258.72L2869.96,9228.22Z" style="fill:rgb(52,242,123);"/>
                    </g>
                    <g transform="matrix(6.12323e-17,1,-1,6.12323e-17,11796.2,6488.89)">
                        <path d="M2869.96,9228.22L2870,9260.22L2840.62,9258.72L2869.96,9228.22Z" style="fill:rgb(135,6,246);"/>
                    </g>
                </g>
            </g>
        </g>
    </g>
</svg>
